# xmcd CD database file
#
# Track frame offsets:
#	150
#	17698
#	34288
#	52628
#	72600
#	86876
#	101438
#	121147
#	139025
#	154706
#	174914
#
# Disc length: 2605 seconds
#
# Revision: 3
# Processed by: cddbd v1.5.2PL0 Copyright (c) Steve Scherf et al.
# Submitted via: CDex 1.72
#
DISCID=870a2b0b
DTITLE=Hybbard, Ray Wylie (USA-06-Snake Farm-flk) - Snake Farm
DYEAR=2006
DGENRE=Folk
TTITLE0=Snake Farm
TTITLE1=Kilowatts
TTITLE2=Heartaches And Grease
TTITLE3=The Way Of The Fallen
TTITLE4=Mother Hubbard's Blues
TTITLE5=Rabbit
TTITLE6=Polecat
TTITLE7=Old Guitar
TTITLE8=Wild Gods Of Mexico
TTITLE9=Live And Die Rock 'n' Roll 
TTITLE10=Resurrection
EXTD=YEAR: 2006
EXTT0=
EXTT1=
EXTT2=
EXTT3=
EXTT4=
EXTT5=
EXTT6=
EXTT7=
EXTT8=
EXTT9=
EXTT10=
PLAYORDER=
